<svg xmlns="http://www.w3.org/2000/svg" xmlns:xlink="http://www.w3.org/1999/xlink" width="400" zoomAndPan="magnify" viewBox="0 0 300 74.999997" height="100" preserveAspectRatio="xMidYMid meet" version="1.0"><defs><g/></defs><g fill="#545454" fill-opacity="1"><g transform="translate(6.02895, 57.749995)"><g><path d="M 5.328125 0 L 5.328125 -37.828125 L 8 -37.828125 L 8 0 Z M 5.328125 0 "/></g></g></g><g fill="#545454" fill-opacity="1"><g transform="translate(28.602448, 57.749995)"><g><path d="M 32.859375 0 L 30.15625 0 L 7.796875 -33.46875 L 7.65625 -33.46875 C 7.695312 -32.53125 7.726562 -31.582031 7.75 -30.625 C 7.78125 -29.664062 7.804688 -28.679688 7.828125 -27.671875 C 7.859375 -26.660156 7.875 -25.625 7.875 -24.5625 L 7.875 0 L 5.328125 0 L 5.328125 -37.828125 L 8.078125 -37.828125 L 30.359375 -4.484375 L 30.484375 -4.484375 C 30.460938 -5.234375 30.4375 -6.109375 30.40625 -7.109375 C 30.382812 -8.117188 30.359375 -9.148438 30.328125 -10.203125 C 30.304688 -11.253906 30.296875 -12.242188 30.296875 -13.171875 L 30.296875 -37.828125 L 32.859375 -37.828125 Z M 32.859375 0 "/></g></g></g><g fill="#545454" fill-opacity="1"><g transform="translate(76.041907, 57.749995)"><g><path d="M 30.59375 -37.828125 L 16.609375 0 L 13.96875 0 L 0 -37.828125 L 2.796875 -37.828125 L 13.140625 -9.828125 C 13.441406 -9.023438 13.71875 -8.238281 13.96875 -7.46875 C 14.226562 -6.695312 14.46875 -5.957031 14.6875 -5.25 C 14.914062 -4.539062 15.117188 -3.859375 15.296875 -3.203125 C 15.460938 -3.859375 15.65625 -4.523438 15.875 -5.203125 C 16.09375 -5.890625 16.332031 -6.617188 16.59375 -7.390625 C 16.851562 -8.160156 17.132812 -8.984375 17.4375 -9.859375 L 27.765625 -37.828125 Z M 30.59375 -37.828125 "/></g></g></g><g fill="#545454" fill-opacity="1"><g transform="translate(115.848209, 57.749995)"><g><path d="M 26.015625 0 L 5.328125 0 L 5.328125 -37.828125 L 26.015625 -37.828125 L 26.015625 -35.421875 L 8 -35.421875 L 8 -21.09375 L 25 -21.09375 L 25 -18.6875 L 8 -18.6875 L 8 -2.40625 L 26.015625 -2.40625 Z M 26.015625 0 "/></g></g></g><g fill="#545454" fill-opacity="1"><g transform="translate(154.334892, 57.749995)"><g><path d="M 14.515625 -37.828125 C 17.515625 -37.828125 20.019531 -37.5 22.03125 -36.84375 C 24.039062 -36.195312 25.554688 -35.117188 26.578125 -33.609375 C 27.597656 -32.109375 28.109375 -30.082031 28.109375 -27.53125 C 28.109375 -25.613281 27.757812 -23.96875 27.0625 -22.59375 C 26.363281 -21.226562 25.398438 -20.101562 24.171875 -19.21875 C 22.941406 -18.34375 21.523438 -17.671875 19.921875 -17.203125 L 30.296875 0 L 27.140625 0 L 17.390625 -16.453125 L 8 -16.453125 L 8 0 L 5.328125 0 L 5.328125 -37.828125 Z M 14.265625 -35.484375 L 8 -35.484375 L 8 -18.8125 L 15.53125 -18.8125 C 18.613281 -18.8125 21.019531 -19.550781 22.75 -21.03125 C 24.488281 -22.519531 25.359375 -24.65625 25.359375 -27.4375 C 25.359375 -30.488281 24.441406 -32.59375 22.609375 -33.75 C 20.785156 -34.90625 18.003906 -35.484375 14.265625 -35.484375 Z M 14.265625 -35.484375 "/></g></g></g><g fill="#545454" fill-opacity="1"><g transform="translate(195.046834, 57.749995)"><g><path d="M 32.859375 0 L 30.15625 0 L 7.796875 -33.46875 L 7.65625 -33.46875 C 7.695312 -32.53125 7.726562 -31.582031 7.75 -30.625 C 7.78125 -29.664062 7.804688 -28.679688 7.828125 -27.671875 C 7.859375 -26.660156 7.875 -25.625 7.875 -24.5625 L 7.875 0 L 5.328125 0 L 5.328125 -37.828125 L 8.078125 -37.828125 L 30.359375 -4.484375 L 30.484375 -4.484375 C 30.460938 -5.234375 30.4375 -6.109375 30.40625 -7.109375 C 30.382812 -8.117188 30.359375 -9.148438 30.328125 -10.203125 C 30.304688 -11.253906 30.296875 -12.242188 30.296875 -13.171875 L 30.296875 -37.828125 L 32.859375 -37.828125 Z M 32.859375 0 "/></g></g></g><g fill="#545454" fill-opacity="1"><g transform="translate(242.486298, 57.749995)"><g><path d="M 5.328125 0 L 5.328125 -37.828125 L 8 -37.828125 L 8 0 Z M 5.328125 0 "/></g></g></g><g fill="#545454" fill-opacity="1"><g transform="translate(265.059791, 57.749995)"><g><path d="M 26.15625 -9.75 C 26.15625 -7.488281 25.585938 -5.59375 24.453125 -4.0625 C 23.316406 -2.539062 21.773438 -1.394531 19.828125 -0.625 C 17.878906 0.132812 15.671875 0.515625 13.203125 0.515625 C 11.660156 0.515625 10.265625 0.441406 9.015625 0.296875 C 7.765625 0.148438 6.632812 -0.0390625 5.625 -0.28125 C 4.613281 -0.519531 3.695312 -0.796875 2.875 -1.109375 L 2.875 -3.78125 C 4.21875 -3.257812 5.773438 -2.804688 7.546875 -2.421875 C 9.316406 -2.035156 11.242188 -1.84375 13.328125 -1.84375 C 15.296875 -1.84375 17.039062 -2.125 18.5625 -2.6875 C 20.09375 -3.257812 21.296875 -4.125 22.171875 -5.28125 C 23.054688 -6.4375 23.5 -7.894531 23.5 -9.65625 C 23.5 -11.207031 23.128906 -12.476562 22.390625 -13.46875 C 21.660156 -14.457031 20.5625 -15.3125 19.09375 -16.03125 C 17.632812 -16.75 15.789062 -17.476562 13.5625 -18.21875 C 12.007812 -18.75 10.597656 -19.3125 9.328125 -19.90625 C 8.054688 -20.507812 6.972656 -21.203125 6.078125 -21.984375 C 5.179688 -22.765625 4.492188 -23.710938 4.015625 -24.828125 C 3.546875 -25.941406 3.3125 -27.257812 3.3125 -28.78125 C 3.3125 -30.863281 3.84375 -32.613281 4.90625 -34.03125 C 5.96875 -35.457031 7.40625 -36.535156 9.21875 -37.265625 C 11.039062 -38.003906 13.09375 -38.375 15.375 -38.375 C 17.1875 -38.375 18.90625 -38.207031 20.53125 -37.875 C 22.164062 -37.539062 23.742188 -37.035156 25.265625 -36.359375 L 24.328125 -34.0625 C 22.804688 -34.71875 21.285156 -35.195312 19.765625 -35.5 C 18.253906 -35.8125 16.753906 -35.96875 15.265625 -35.96875 C 13.492188 -35.96875 11.910156 -35.703125 10.515625 -35.171875 C 9.128906 -34.648438 8.03125 -33.863281 7.21875 -32.8125 C 6.40625 -31.757812 6 -30.429688 6 -28.828125 C 6 -27.171875 6.375 -25.832031 7.125 -24.8125 C 7.875 -23.800781 8.941406 -22.957031 10.328125 -22.28125 C 11.722656 -21.601562 13.367188 -20.945312 15.265625 -20.3125 C 17.515625 -19.550781 19.445312 -18.753906 21.0625 -17.921875 C 22.6875 -17.085938 23.941406 -16.03125 24.828125 -14.75 C 25.710938 -13.476562 26.15625 -11.8125 26.15625 -9.75 Z M 26.15625 -9.75 "/></g></g></g></svg>